HIERARCHY
ROOT Hips
{
	OFFSET 0.000000 0.000000 0.000000 
	CHANNELS 6 Xposition Yposition Zposition Yrotation Zrotation Xrotation 
	JOINT Lumbar
	{
		OFFSET 0.000000 0.000000 0.000000 
		CHANNELS 3 Zrotation Xrotation Yrotation
		JOINT Neck
		{
			OFFSET 0.000000 0.445665 0.000000 
			CHANNELS 3 Zrotation Xrotation Yrotation
			End Site
			{
				OFFSET 0.000000 0.227535 0.000000 
			}
		}
		JOINT RightShoulder
		{
			OFFSET 0.019635 0.377685 0.194865 
			CHANNELS 3 Zrotation Xrotation Yrotation
			JOINT RightElbow
			{
				OFFSET 0.000000 -0.243375 0.000000 
				CHANNELS 2 Zrotation Yrotation
				JOINT RightWrist
				{
					OFFSET 0.000000 -0.264825 0.000000 
					CHANNELS 2 Zrotation Xrotation
					End Site
					{
						OFFSET 0.006600 -0.176220 0.000990 
					}
				}
			}
		}
		JOINT LeftShoulder
		{
			OFFSET 0.019635 0.377685 -0.194865 
			CHANNELS 3 Zrotation Xrotation Yrotation
			JOINT LeftElbow
			{
				OFFSET 0.000000 -0.243375 0.000000 
				CHANNELS 2 Zrotation Yrotation
				JOINT LeftWrist
				{
					OFFSET 0.000000 -0.264825 0.000000 
					CHANNELS 2 Zrotation Xrotation
					End Site
					{
						OFFSET 0.006600 -0.176220 -0.000990 
					}
				}
			}
		}
	}
	JOINT RightHip
	{
		OFFSET 0.052140 -0.069960 0.075570 
		CHANNELS 3 Zrotation Xrotation Yrotation
		JOINT RightKnee
		{
			OFFSET 0.000000 -0.402270 0.000000 
			CHANNELS 1 Zrotation
			JOINT RightAnkle
			{
				OFFSET 0.000000 -0.404085 0.000000 
				CHANNELS 3 Zrotation Xrotation Yrotation
				End Site
				{
					OFFSET 0.204105 -0.089430 0.008415 
				}
			}
		}
	}
	JOINT LeftHip
	{
		OFFSET 0.052140 -0.069960 -0.075570 
		CHANNELS 3 Zrotation Xrotation Yrotation
		JOINT LeftKnee
		{
			OFFSET 0.000000 -0.402270 0.000000 
			CHANNELS 1 Zrotation
			JOINT LeftAnkle
			{
				OFFSET 0.000000 -0.404085 0.000000 
				CHANNELS 3 Zrotation Xrotation Yrotation
				End Site
				{
					OFFSET 0.204105 -0.089430 -0.008415 
				}
			}
		}
	}
}
MOTION
Frames: 25
Frame Time: 0.02
-0.38578 -0.42359 0.19578 28.55332 5.47736 -7.31946 14.66239 1.48487 -10.79305 -35.21433 10.69265 -0.83002 58.23947 -54.94743 52.44117 112.70012 77.62936 24.81823 -4.11815 5.13118 2.46159 -51.63962 84.61076 -111.70478 -20.11409 9.80998 84.6163 -16.61204 -7.31 -88.44394 -10.91151 -5.11038 -3.61317 84.53641 16.45913 6.36039 -95.05572 -8.55989 4.84071 3.31685
-0.38589 -0.42388 0.19567 28.50497 5.48503 -7.52259 14.57924 1.48653 -10.98968 -35.42913 10.66235 -0.83002 57.85667 -55.83477 52.21837 113.74205 76.9471 24.66968 -4.21515 4.76661 2.27766 -51.62779 84.40992 -113.44375 -20.96999 9.96387 84.52917 -16.54203 -7.53206 -88.42891 -10.91178 -5.10611 -3.60883 84.67904 16.16871 5.76843 -95.13978 -8.60783 4.86098 3.33167
-0.38579 -0.42424 0.19542 28.44588 5.41102 -7.76408 14.57422 1.57705 -11.26962 -35.59924 10.40563 -0.83002 57.27252 -56.84241 52.01611 115.2326 75.50647 24.34697 -4.4295 4.47912 2.29727 -51.51083 84.3016 -114.60758 -21.60205 10.04498 84.50957 -16.48576 -7.81313 -88.45529 -10.90328 -5.09953 -3.60182 84.93424 15.79472 5.02261 -95.27568 -8.66614 4.88616 3.35012
-0.38578 -0.42456 0.19521 28.38142 5.38056 -7.984 14.53109 1.62718 -11.51182 -35.78999 10.24907 -0.83003 56.85584 -57.76382 51.88277 116.45973 74.37558 24.09315 -4.59875 4.1591 2.23023 -51.43585 84.16226 -115.86991 -22.26168 10.143 84.4517 -16.43131 -8.08119 -88.4605 -10.89595 -5.09302 -3.59543 85.12816 15.48931 4.37268 -95.38822 -8.71689 4.9081 3.36606
-0.38576 -0.42491 0.19511 28.35915 5.32433 -8.22213 14.49693 1.67861 -11.75334 -35.98011 10.10218 -0.83003 56.13305 -58.83523 51.44819 117.93708 73.36007 23.86432 -4.74236 3.8383 2.14231 -51.38376 83.97717 -117.81773 -23.23199 10.31012 84.42343 -16.34395 -8.29453 -88.47526 -10.90005 -5.0905 -3.59146 85.36354 15.05875 3.6147 -95.5005 -8.77947 4.9342 3.38554
-0.38572 -0.42522 0.19475 28.24704 5.30136 -8.43124 14.46392 1.74817 -12.01583 -36.15973 9.88158 -0.83003 55.98275 -59.61315 51.61883 118.998 71.95881 23.55136 -4.96004 3.53474 2.14508 -51.26002 83.90923 -118.21766 -23.50913 10.31735 84.35151 -16.32584 -8.63169 -88.48016 -10.87889 -5.07931 -3.58195 85.54049 14.8651 3.04291 -95.62535 -8.82014 4.95295 3.39865
-0.38562 -0.42541 0.19374 27.88788 5.39618 -8.54986 14.40878 1.84369 -12.3195 -36.33245 9.51786 -0.83004 57.609 -59.59337 53.65635 118.82977 69.39398 23.02088 -5.40041 3.24674 2.34442 -50.95912 84.13975 -114.28836 -21.84956 9.88038 84.12929 -16.52229 -9.33157 -88.44718 -10.7845 -5.04307 -3.5566 85.51991 15.37537 3.04413 -95.77291 -8.7953 4.94891 3.39199
-0.3855 -0.42556 0.19249 27.43944 5.52602 -8.63816 14.35346 1.95473 -12.64071 -36.49411 9.08637 -0.83004 59.79221 -59.26644 56.26602 118.22413 66.51603 22.41919 -5.90261 2.97416 2.62811 -50.59075 84.4852 -108.855 -19.51361 9.2885 83.86327 -16.78348 -10.14774 -88.40298 -10.66602 -4.99849 -3.52597 85.43832 16.12135 3.23416 -95.93106 -8.74852 4.93753 3.379
-0.38539 -0.42573 0.19133 27.03264 5.63584 -8.74067 14.30252 2.05985 -12.95166 -36.65359 8.68398 -0.83004 61.6225 -59.04799 58.47701 117.7963 63.97487 21.87056 -6.34404 2.70186 2.87531 -50.25685 84.77949 -104.2368 -17.53776 8.7805 83.62635 -16.99724 -10.8871 -88.3643 -10.56233 -4.95884 -3.49854 85.39038 16.73994 3.32381 -96.0839 -8.71344 4.93039 3.36975
-0.38526 -0.4259 0.19021 26.61957 5.7603 -8.84211 14.23621 2.16284 -13.2755 -36.842 8.28417 -0.83005 63.86151 -58.95671 61.26277 117.46301 60.60653 21.22812 -6.92433 2.40245 3.12209 -49.90352 85.07273 -99.04473 -15.33282 8.21283 83.3536 -17.28608 -11.72831 -88.32533 -10.44229 -4.91432 -3.46767 85.32134 17.44096 3.46943 -96.24092 -8.67145 4.91966 3.35708
-0.38519 -0.42604 0.18897 26.20022 5.86347 -8.93884 14.20078 2.27341 -13.57515 -36.96803 7.86166 -0.83005 65.39116 -58.53675 63.0014 116.83513 58.87093 20.76656 -7.23263 2.16114 3.38689 -49.57558 85.39398 -94.69615 -13.44583 7.73394 83.14338 -17.43551 -12.38597 -88.28369 -10.35049 -4.87796 -3.44272 85.28032 18.02765 3.54554 -96.39075 -8.63848 4.91451 3.34988
-0.38533 -0.4261 0.18743 25.77065 5.90129 -9.02291 14.25081 2.3953 -13.80667 -36.92516 7.42958 -0.83005 64.76805 -57.18948 61.58511 115.39454 61.94487 20.82172 -6.73875 2.08427 3.68164 -49.33891 85.76626 -93.06516 -12.61627 7.53534 83.12339 -17.16862 -12.49239 -88.23792 -10.3443 -4.86656 -3.43576 85.33035 18.23902 3.38262 -96.52065 -8.63587 4.92744 3.3601
-0.38553 -0.42611 0.18578 25.34057 5.91674 -9.10418 14.33134 2.52485 -14.01207 -36.81996 6.97106 -0.83006 63.42523 -55.53822 59.11948 113.68946 66.63402 21.0615 -5.97528 2.06359 3.99045 -49.12998 86.16187 -92.33425 -12.12884 7.43229 83.16614 -16.76193 -12.4125 -88.18954 -10.36712 -4.86359 -3.4349 85.41009 18.32808 3.14439 -96.64222 -8.64304 4.94606 3.37588
-0.3857 -0.42614 0.1842 24.92052 5.94119 -9.19143 14.39763 2.65431 -14.22728 -36.74312 6.50217 -0.83006 62.44871 -54.08879 57.21337 112.17384 70.44124 21.21883 -5.35804 2.01143 4.29122 -48.90555 86.54526 -91.18035 -11.47635 7.28768 83.17544 -16.42945 -12.42833 -88.14182 -10.37552 -4.85653 -3.43104 85.47679 18.47474 2.94169 -96.76572 -8.64562 4.96146 3.38857
-0.3859 -0.42619 0.18251 24.45627 5.97069 -9.25868 14.46626 2.77026 -14.45261 -36.66583 6.12633 -0.83006 61.31926 -52.36345 54.97288 110.35384 74.86423 21.37081 -4.64232 1.98435 4.60194 -48.69006 86.93989 -90.03131 -10.83929 7.12981 83.20448 -16.05448 -12.40252 -88.09597 -10.38817 -4.85029 -3.42793 85.54051 18.62068 2.73905 -96.89751 -8.64799 4.97923 3.40336
-0.38605 -0.42619 0.18104 24.08477 5.98519 -9.36619 14.53639 2.91567 -14.6495 -36.5747 5.55001 -0.83007 60.33851 -51.14008 53.17905 109.1069 78.38888 21.57447 -4.06763 1.91893 4.89427 -48.4645 87.31471 -89.10703 -10.26175 7.02423 83.20741 -15.73355 -12.41652 -88.04576 -10.39932 -4.84445 -3.42481 85.61696 18.73649 2.51712 -97.00985 -8.65345 4.99356 3.41523
-0.38602 -0.42604 0.1802 23.97337 5.95273 -9.59552 14.61041 3.14277 -14.78196 -36.46156 4.43946 -0.83007 59.86664 -51.41503 52.80837 109.53931 79.0754 21.91328 -3.94061 1.7272 5.13055 -48.19567 87.632 -88.57952 -9.75557 7.04079 83.12693 -15.59939 -12.5954 -87.98393 -10.39795 -4.83766 -3.42004 85.73314 18.79345 2.24945 -97.07061 -8.66473 4.99669 3.41743
-0.38594 -0.42586 0.17959 23.95523 5.90768 -9.86386 14.68361 3.39871 -14.8852 -36.33632 3.1269 -0.83008 59.57794 -52.1985 52.92903 110.55246 78.80052 22.29135 -3.96532 1.49625 5.34765 -47.91778 87.92734 -88.25575 -9.30304 7.10719 83.01757 -15.52354 -12.81845 -87.91781 -10.39443 -4.83104 -3.41512 85.85941 18.82385 1.96589 -97.11187 -8.67895 4.99624 3.41657
-0.38589 -0.42571 0.17889 23.89214 5.87563 -10.10785 14.75232 3.63993 -14.99661 -36.21632 1.89761 -0.83009 59.25752 -52.7279 52.87082 111.28239 78.9379 22.62685 -3.9261 1.28737 5.57443 -47.65004 88.23039 -87.84833 -8.83495 7.15088 82.91887 -15.41836 -13.01449 -87.854 -10.39282 -4.82437 -3.41038 85.97334 18.8693 1.69605 -97.16211 -8.6921 4.99767 3.41732
-0.38581 -0.4255 0.17813 23.83919 5.81271 -10.37933 14.84222 3.88834 -15.12855 -36.09607 0.69979 -0.83009 58.70745 -53.35005 52.60521 112.08949 79.2199 23.07206 -3.85889 1.06193 5.79809 -47.35756 88.54428 -87.43233 -8.33946 7.19826 82.83235 -15.32004 -13.23329 -87.789 -10.38823 -4.81782 -3.40536 86.12012 18.89937 1.397 -97.21212 -8.70438 4.9983 3.41735
-0.38578 -0.42541 0.17754 23.78805 5.8106 -10.60333 14.88789 4.12839 -15.21134 -35.97326 -0.60671 -0.8301 58.67267 -53.89554 52.8813 112.87077 78.97094 23.29705 -3.88628 0.8617 6.023 -47.11435 88.82956 -87.07266 -7.91148 7.24831 82.7133 -15.22344 -13.4177 -87.72497 -10.389 -4.811 -3.40082 86.20159 18.95505 1.15505 -97.25741 -8.71914 4.9996 3.41805
-0.38589 -0.42568 0.17732 23.71287 5.98619 -10.6827 14.80749 4.3395 -15.16376 -35.85517 -2.20216 -0.8301 60.15841 -54.17928 54.71753 113.49713 77.31142 22.8917 -4.16755 0.73358 6.26005 -47.00727 89.04544 -86.80295 -7.63794 7.29559 82.50703 -15.11506 -13.49579 -87.66913 -10.40468 -4.8029 -3.39736 86.0911 19.10279 1.08316 -97.29998 -8.73919 5.00407 3.42154
-0.38607 -0.42608 0.17726 23.6376 6.22207 -10.71372 14.68332 4.54093 -15.06823 -35.73345 -3.89259 -0.83011 62.13593 -54.35734 57.05532 114.06849 75.17337 22.26476 -4.53503 0.63308 6.49816 -46.95035 89.23253 -86.58149 -7.43191 7.34302 82.26973 -15.00758 -13.53862 -87.61359 -10.42579 -4.79457 -3.39441 85.91624 19.27522 1.06831 -97.33743 -8.76172 5.00921 3.42573
-0.38624 -0.42641 0.17714 23.56629 6.4263 -10.76953 14.58165 4.74602 -14.99591 -35.6081 -5.5145 -0.83012 63.79523 -54.53492 59.04436 114.62738 73.36765 21.74667 -4.84432 0.52453 6.73311 -46.87173 89.42965 -86.34384 -7.20629 7.38852 82.049 -14.90184 -13.59902 -87.555 -10.44453 -4.7866 -3.39137 85.77649 19.42696 1.0218 -97.37366 -8.78367 5.01376 3.42944
-0.38633 -0.42677 0.17698 23.48114 6.64881 -10.81483 14.46861 4.95536 -14.91639 -35.50516 -7.25117 -0.83012 65.84989 -54.92939 61.54921 115.36222 71.05603 21.19583 -5.23718 0.3963 6.97882 -46.78817 89.63819 -86.08955 -6.93782 7.44357 81.81608 -14.78881 -13.65487 -87.50854 -10.4627 -4.77752 -3.38771 85.61177 19.61693 0.99785 -97.4243 -8.80355 5.01947 3.43378
